<?xml version="1.0" encoding="utf-8"?>
<svg xmlns="http://www.w3.org/2000/svg" width="274.505" height="274.505" viewBox="0 0 274.505 274.505">
  <g id="Group_13691" data-name="Group 13691" transform="translate(-555.736 -318.12)">
    <circle id="Ellipse_1870" data-name="Ellipse 1870" cx="137.253" cy="137.253" r="137.253" transform="translate(555.736 318.12)" fill="#cd2027"/>
    <g id="Ruby_on_Rails-Logo.wine" transform="translate(609.736 368.12)">
      <path id="Path_5772" data-name="Path 5772" d="M257.621,99.786v10.848h19.6a11.208,11.208,0,0,0,11.148-11.148v-4.2A11.069,11.069,0,0,0,277.22,84.143h-9.77V79.108H286.81V68.2H268.23a11.407,11.407,0,0,0-11.208,11.328V83.3c0,7.372,6.353,11.148,11.208,11.148,13.486.06-3.237,0,9.23,0v5.274M152.613,97.149S163.1,96.25,163.1,82.7,150.4,67.9,150.4,67.9H127.5v42.734h11.508V100.325l9.949,10.309h17.022ZM148.178,88.4h-9.17v-9.77h9.23s2.577.959,2.577,4.855S148.178,88.4,148.178,88.4Zm43.334-20.2H179.824c-8.331,0-11.148,7.552-11.148,11.148v31.287h11.688v-7.492h10.968v7.492H202.66V79.348C202.66,70.238,194.389,68.2,191.512,68.2Zm-.18,22.836H180.3V80.666s0-2.337,3.656-2.337h4.016c3.237,0,3.3,2.337,3.3,2.337V91.035ZM207.994,68.2h12.167v42.435H207.994Zm17.142,0v42.435h28.47V99.666H237.243V68.2Z" transform="translate(-122.377 51.803)" fill="#fff" fill-rule="evenodd"/>
      <path id="Path_5773" data-name="Path 5773" d="M7,104.573H64.819S53.768,54.146,90.362,33.726c7.978-3.879,33.374-18.37,74.945,12.369,1.317-1.1,2.562-1.976,2.562-1.976S129.811,6.134,87.434,10.379c-21.3,1.9-47.5,21.3-62.869,46.914S7,104.573,7,104.573Z" transform="translate(-1.877 -2.694)" fill="#fff" fill-rule="evenodd"/>
      <path id="Path_5774" data-name="Path 5774" d="M7,104.573H64.819S53.768,54.146,90.362,33.726c7.978-3.879,33.374-18.37,74.945,12.369,1.317-1.1,2.562-1.976,2.562-1.976S129.811,6.134,87.434,10.379c-21.3,1.9-47.5,21.3-62.869,46.914S7,104.573,7,104.573Z" transform="translate(-1.877 -2.694)" fill="#fff" fill-rule="evenodd"/>
      <path id="Path_5775" data-name="Path 5775" d="M7,103.46H64.819S53.768,53.033,90.362,32.614c7.978-3.879,33.374-18.37,74.945,12.369,1.317-1.1,2.562-1.976,2.562-1.976S129.811,5.022,87.434,9.267c-21.371,1.9-47.573,21.3-62.942,46.914S7,103.46,7,103.46Zm120.468-90.1.293-4.9a35.79,35.79,0,0,0-7.1-2.562l-.293,4.83C122.784,11.536,125.126,12.414,127.468,13.365Z" transform="translate(-1.877 -1.582)" fill="#fff" fill-rule="evenodd"/>
      <path id="Path_5776" data-name="Path 5776" d="M118.639,27.3l-.293,4.611a40.813,40.813,0,0,1,7.246.878l.293-4.538A51.828,51.828,0,0,0,118.639,27.3ZM91.559,4.465h.732L90.827,0A58.4,58.4,0,0,0,83.8.439l1.391,4.318A61.788,61.788,0,0,1,91.559,4.465ZM95.072,31.4l1.683,5.05a46.3,46.3,0,0,1,6.367-2.562l-1.61-4.83A53.1,53.1,0,0,0,95.072,31.4ZM61.844,12.149,58.551,7.1c-1.83.951-3.733,1.976-5.709,3.147l3.367,5.123c1.9-1.171,3.733-2.269,5.636-3.22Zm15,32.935,3.513,5.27a40.641,40.641,0,0,1,4.318-5.2l-3.293-4.977a40.488,40.488,0,0,0-4.538,4.9ZM66.236,68.651l5.928,4.684A58.448,58.448,0,0,1,73.7,64.772L68.431,60.6A69.587,69.587,0,0,0,66.236,68.651ZM34.179,33.886l-5.2-4.538c-1.9,1.83-3.733,3.659-5.416,5.489l5.636,4.83A74.122,74.122,0,0,1,34.179,33.886ZM12.076,66.6,3.659,63.528C2.269,66.675.732,70.334,0,72.31l8.417,3.074C9.368,72.9,10.905,69.31,12.076,66.6ZM65.138,87.241a74.355,74.355,0,0,0,.878,9.222L74.8,99.61A96.739,96.739,0,0,1,73.042,90.1Z" transform="translate(0 0)" fill="#fff" fill-rule="evenodd"/>
    </g>
  </g>
</svg>
